<svg id="emoji" viewBox="0 0 72 72" xmlns="http://www.w3.org/2000/svg">
  <g id="color">
    <path fill="#9B9B9A" d="M35.5 67C41.8513 67 47 63.4183 47 59C47 54.5817 41.8513 51 35.5 51C29.1487 51 24 54.5817 24 59C24 63.4183 29.1487 67 35.5 67Z"/>
    <path fill="#D22F27" d="M45.2106 31.7486L49.7159 18.3587L54.2211 4.96893L32.6963 5.17937L11.1715 5.3898L28.191 18.5692L45.2106 31.7486Z"/>
  </g>
  <g id="line">
    <path fill="none" stroke="#000" stroke-linecap="round" stroke-width="2" d="M42.1874 52.4917C44.371 53.5775 45.9398 55.1603 46.6221 56.9661C47.3045 58.7719 47.0574 60.6868 45.9237 62.3792C44.79 64.0716 42.8411 65.4348 40.4145 66.2327C37.988 67.0306 35.2367 67.213 32.6372 66.7481C30.0377 66.2833 27.7538 65.2007 26.1811 63.6877C24.6084 62.1747 23.8459 60.3266 24.0259 58.4637C24.2058 56.6008 25.3167 54.8403 27.1662 53.4873C29.0157 52.1342 31.4873 51.2738 34.1528 51.0551"/>
    <path fill="none" stroke="#000" stroke-linecap="round" stroke-linejoin="round" stroke-width="2" d="M36.093 58L45.0465 31.5M45.0465 31.5L54 5H10L45.0465 31.5Z"/>
  </g>
</svg>
