<svg xmlns="http://www.w3.org/2000/svg" id="emoji" viewBox="0 0 72 72">
  <g id="color">
    <path d="m12.08,19.86h44.95v32.27H12.08V19.86Z" fill="#fff" fill-rule="evenodd"/>
    <line fill="none" stroke="#9b9b9a" stroke-linecap="round" stroke-linejoin="round" stroke-width="2.305" x1="13.23" x2="55.87" y1="22.52" y2="22.52"/>
    <line fill="none" stroke="#9b9b9a" stroke-linecap="round" stroke-linejoin="round" stroke-width="2.305" x1="13.23" x2="55.87" y1="49.72" y2="49.72"/>
    <circle cx="62.73" cy="30.73" fill="#ea5a47" r="2.593"/>
    <path d="m64.01,28.68c.7732,1.2034.4244,2.8058-.7791,3.579-.8529.5479-1.947.5479-2.7999,0,.7695,1.2071,2.3719,1.5618,3.579.7923s1.5618-2.3719.7923-3.579c-.2032-.3187-.4736-.5891-.7923-.7923Z" fill="#d22f27"/>
  </g>
  <g id="line">
    <line fill="none" stroke="#000" stroke-linecap="round" stroke-linejoin="round" stroke-width="2.305" x1="13.23" x2="55.87" y1="19.86" y2="19.86"/>
    <line fill="none" stroke="#000" stroke-linecap="round" stroke-linejoin="round" stroke-width="2" x1="12.08" x2="12.08" y1="52.14" y2="19.86"/>
    <line fill="none" stroke="#000" stroke-linecap="round" stroke-linejoin="round" stroke-width="4.007" x1="55.95" x2="13.15" y1="52.14" y2="52.14"/>
    <line fill="none" stroke="#000" stroke-linecap="round" stroke-linejoin="round" stroke-width="4.007" x1="13.15" x2="55.95" y1="19.86" y2="19.86"/>
    <line fill="none" stroke="#000" stroke-linecap="round" stroke-linejoin="round" stroke-width="2" x1="27.06" x2="27.06" y1="19.86" y2="52.14"/>
    <line fill="none" stroke="#000" stroke-linecap="round" stroke-linejoin="round" stroke-width="2" x1="42.04" x2="42.04" y1="19.86" y2="52.14"/>
    <line fill="none" stroke="#000" stroke-linecap="round" stroke-linejoin="round" stroke-width="1.9163" x1="57.273" x2="62.91" y1="47.67" y2="47.67"/>
    <line fill="none" stroke="#000" stroke-linecap="round" stroke-linejoin="round" stroke-width="2" x1="62.91" x2="62.91" y1="47.42" y2="34"/>
    <circle cx="62.91" cy="30.73" fill="none" r="2.593" stroke="#000" stroke-miterlimit="10" stroke-width="1.297"/>
    <polyline fill="none" points="17.3 35.69 17.3 33.7 21.84 33.7 19.03 41.77" stroke="#000" stroke-linecap="round" stroke-linejoin="round" stroke-width="2"/>
    <polyline fill="none" points="32.28 31.23 32.28 29.24 36.82 29.24 34.02 37.3" stroke="#000" stroke-linecap="round" stroke-linejoin="round" stroke-width="2"/>
    <polyline fill="none" points="47.26 35.69 47.26 33.7 51.8 33.7 49 41.77" stroke="#000" stroke-linecap="round" stroke-linejoin="round" stroke-width="2"/>
    <line fill="none" stroke="#000" stroke-linecap="round" stroke-linejoin="round" stroke-width="2" x1="57.02" x2="57.02" y1="19.86" y2="52.14"/>
  </g>
  <g id="color-foreground">
    <polyline fill="none" points="17.3 35.69 17.3 33.7 21.84 33.7 19.03 41.77" stroke="#d22f27" stroke-linecap="round" stroke-linejoin="round" stroke-width="2"/>
    <polyline fill="none" points="32.28 31.23 32.28 29.24 36.82 29.24 34.02 37.3" stroke="#d22f27" stroke-linecap="round" stroke-linejoin="round" stroke-width="2"/>
    <polyline fill="none" points="47.26 35.69 47.26 33.7 51.8 33.7 49 41.77" stroke="#d22f27" stroke-linecap="round" stroke-linejoin="round" stroke-width="2"/>
  </g>
</svg>
