<svg xmlns="http://www.w3.org/2000/svg">
  <defs>
    <symbol id="dtn-glyph-counter-minus" viewBox="0 0 5 9">
      <path class="dtn-glyph-path dtn-glyph-path-counter" fill="currentColor" d="M0.66 5.0543 L0.66 4.495 L4.34 4.495 L4.34 5.0543 L0.66 5.0543 Z"/>
    </symbol>
    <symbol id="dtn-glyph-counter-0" viewBox="0 0 5 9">
      <path class="dtn-glyph-path dtn-glyph-path-counter" fill="currentColor" d="M2.5 8.25 Q2.23 8.25 1.965 8.1951 Q1.7 8.1401 1.465 8.0103 Q1.23 7.8805 1.055 7.6708 Q0.88 7.4611 0.77 7.2164 Q0.66 6.9717 0.62 6.7071 Q0.58 6.4424 0.58 6.1728 L0.58 2.8272 Q0.58 2.5576 0.62 2.2929 Q0.66 2.0283 0.77 1.7836 Q0.88 1.5389 1.055 1.3292 Q1.23 1.1195 1.465 0.9897 Q1.7 0.8599 1.965 0.8049 Q2.23 0.75 2.5 0.75 Q2.77 0.75 3.035 0.8049 Q3.3 0.8599 3.535 0.9897 Q3.77 1.1195 3.945 1.3292 Q4.12 1.5389 4.23 1.7836 Q4.34 2.0283 4.38 2.2929 Q4.42 2.5576 4.42 2.8272 L4.42 6.1728 Q4.42 6.4424 4.38 6.7071 Q4.34 6.9717 4.23 7.2164 Q4.12 7.4611 3.945 7.6708 Q3.77 7.8805 3.535 8.0103 Q3.3 8.1401 3.035 8.1951 Q2.77 8.25 2.5 8.25 Z M1.19 5.9431 L3.74 2.2081 Q3.68 2.0083 3.565 1.8286 Q3.45 1.6488 3.285 1.529 Q3.12 1.4091 2.915 1.3542 Q2.71 1.2993 2.5 1.2993 Q2.31 1.2993 2.12 1.3442 Q1.93 1.3891 1.77 1.494 Q1.61 1.5989 1.495 1.7487 Q1.38 1.8985 1.31 2.0782 Q1.24 2.258 1.215 2.4477 Q1.19 2.6375 1.19 2.8272 L1.19 5.9431 Z M2.5 7.7007 Q2.69 7.7007 2.88 7.6558 Q3.07 7.6109 3.23 7.506 Q3.39 7.4011 3.505 7.2513 Q3.62 7.1015 3.69 6.9218 Q3.76 6.742 3.785 6.5523 Q3.81 6.3625 3.81 6.1728 L3.81 3.0569 L1.26 6.7919 Q1.32 6.9917 1.435 7.1714 Q1.55 7.3512 1.715 7.471 Q1.88 7.5909 2.085 7.6458 Q2.29 7.7007 2.5 7.7007 Z"/>
    </symbol>
    <symbol id="dtn-glyph-counter-1" viewBox="0 0 5 9">
      <path class="dtn-glyph-path dtn-glyph-path-counter" fill="currentColor" d="M0.75 8.1701 L0.75 7.6208 L2.27 7.6208 L2.27 1.489 L0.71 2.6275 L0.37 2.218 L2.27 0.8299 L2.88 0.8299 L2.88 7.6208 L4.25 7.6208 L4.25 8.1701 L0.75 8.1701 Z"/>
    </symbol>
    <symbol id="dtn-glyph-counter-2" viewBox="0 0 5 9">
      <path class="dtn-glyph-path dtn-glyph-path-counter" fill="currentColor" d="M0.66 8.1701 L0.66 7.6208 L2.96 4.515 Q3.11 4.3152 3.26 4.1055 Q3.41 3.8958 3.525 3.6761 Q3.64 3.4564 3.705 3.2067 Q3.77 2.9571 3.77 2.7074 Q3.77 2.4377 3.705 2.1731 Q3.64 1.9085 3.465 1.7037 Q3.29 1.499 3.035 1.3991 Q2.78 1.2993 2.51 1.2993 Q2.26 1.2993 2.015 1.3742 Q1.77 1.4491 1.595 1.6288 Q1.42 1.8086 1.335 2.0483 Q1.25 2.2879 1.25 2.5376 L1.25 2.5875 L0.64 2.5875 L0.64 2.5176 Q0.64 2.278 0.695 2.0383 Q0.75 1.7986 0.87 1.5889 Q0.99 1.3792 1.17 1.2094 Q1.35 1.0396 1.565 0.9348 Q1.78 0.8299 2.025 0.7899 Q2.27 0.75 2.51 0.75 Q2.77 0.75 3.025 0.7999 Q3.28 0.8499 3.505 0.9697 Q3.73 1.0895 3.905 1.2793 Q4.08 1.469 4.19 1.7037 Q4.3 1.9384 4.34 2.1931 Q4.38 2.4477 4.38 2.7074 Q4.38 2.997 4.31 3.2866 Q4.24 3.5762 4.11 3.8359 Q3.98 4.0955 3.815 4.3352 Q3.65 4.5749 3.47 4.8146 L3.46 4.8246 Q3.46 4.8346 3.46 4.8346 L1.39 7.6208 L4.34 7.6208 L4.34 8.1701 L0.66 8.1701 Z"/>
    </symbol>
    <symbol id="dtn-glyph-counter-3" viewBox="0 0 5 9">
      <path class="dtn-glyph-path dtn-glyph-path-counter" fill="currentColor" d="M2.53 8.25 Q2.28 8.25 2.03 8.2101 Q1.78 8.1701 1.55 8.0702 Q1.32 7.9704 1.13 7.8006 Q0.94 7.6308 0.81 7.4161 Q0.68 7.2014 0.62 6.9567 Q0.56 6.7121 0.56 6.4524 L0.56 6.4124 L1.17 6.4124 L1.17 6.4424 Q1.17 6.7021 1.265 6.9567 Q1.36 7.2114 1.555 7.3812 Q1.75 7.5509 2.01 7.6258 Q2.27 7.7007 2.53 7.7007 Q2.81 7.7007 3.08 7.6009 Q3.35 7.501 3.54 7.2963 Q3.73 7.0915 3.81 6.8119 Q3.89 6.5323 3.89 6.2527 Q3.89 6.033 3.84 5.8083 Q3.79 5.5836 3.68 5.3838 Q3.57 5.1841 3.4 5.0243 Q3.23 4.8645 3.025 4.7746 Q2.82 4.6848 2.59 4.6648 Q2.36 4.6448 2.13 4.6448 L2.13 4.0856 Q2.34 4.0856 2.55 4.0656 Q2.76 4.0456 2.95 3.9657 Q3.14 3.8858 3.29 3.741 Q3.44 3.5962 3.54 3.4115 Q3.64 3.2267 3.685 3.027 Q3.73 2.8272 3.73 2.6175 Q3.73 2.3678 3.66 2.1182 Q3.59 1.8685 3.43 1.6738 Q3.27 1.479 3.025 1.3891 Q2.78 1.2993 2.53 1.2993 Q2.29 1.2993 2.05 1.3792 Q1.81 1.4591 1.645 1.6388 Q1.48 1.8186 1.405 2.0533 Q1.33 2.2879 1.33 2.5376 L1.33 2.5875 L0.72 2.5875 L0.72 2.5176 Q0.72 2.278 0.775 2.0433 Q0.83 1.8086 0.94 1.5989 Q1.05 1.3891 1.22 1.2194 Q1.39 1.0496 1.605 0.9397 Q1.82 0.8299 2.055 0.7899 Q2.29 0.75 2.53 0.75 Q2.77 0.75 3.015 0.7949 Q3.26 0.8399 3.475 0.9547 Q3.69 1.0696 3.86 1.2543 Q4.03 1.4391 4.135 1.6538 Q4.24 1.8685 4.29 2.1132 Q4.34 2.3579 4.34 2.5975 Q4.34 2.8772 4.275 3.1468 Q4.21 3.4164 4.07 3.6511 Q3.93 3.8858 3.72 4.0706 Q3.51 4.2553 3.25 4.3552 Q3.54 4.465 3.78 4.6598 Q4.02 4.8545 4.185 5.1142 Q4.35 5.3738 4.425 5.6684 Q4.5 5.963 4.5 6.2726 Q4.5 6.5323 4.445 6.7919 Q4.39 7.0516 4.27 7.2863 Q4.15 7.521 3.965 7.7157 Q3.78 7.9105 3.545 8.0303 Q3.31 8.1501 3.05 8.2001 Q2.79 8.25 2.53 8.25 Z"/>
    </symbol>
    <symbol id="dtn-glyph-counter-4" viewBox="0 0 5 9">
      <path class="dtn-glyph-path dtn-glyph-path-counter" fill="currentColor" d="M3.76 8.1701 L3.15 8.1701 L3.15 6.5423 L0.58 6.5423 L0.58 5.993 L3.01 0.8299 L3.76 0.8299 L3.76 5.993 L4.34 5.993 L4.34 6.5423 L3.76 6.5423 L3.76 8.1701 Z M1.21 5.993 L3.15 5.993 L3.15 1.8585 L1.21 5.993 Z"/>
    </symbol>
    <symbol id="dtn-glyph-counter-5" viewBox="0 0 5 9">
      <path class="dtn-glyph-path dtn-glyph-path-counter" fill="currentColor" d="M2.53 8.25 Q2.29 8.25 2.06 8.2101 Q1.83 8.1701 1.615 8.0752 Q1.4 7.9804 1.225 7.8256 Q1.05 7.6708 0.925 7.471 Q0.8 7.2713 0.73 7.0466 Q0.66 6.8219 0.65 6.5822 L1.26 6.5822 Q1.28 6.8219 1.38 7.0416 Q1.48 7.2613 1.655 7.4161 Q1.83 7.5709 2.06 7.6358 Q2.29 7.7007 2.53 7.7007 Q2.72 7.7007 2.915 7.6458 Q3.11 7.5909 3.265 7.471 Q3.42 7.3512 3.53 7.1814 Q3.64 7.0117 3.705 6.8219 Q3.77 6.6322 3.79 6.4324 Q3.81 6.2327 3.81 6.033 Q3.81 5.8332 3.785 5.6335 Q3.76 5.4338 3.69 5.244 Q3.62 5.0543 3.49 4.8895 Q3.36 4.7247 3.19 4.6198 Q3.02 4.515 2.82 4.47 Q2.62 4.4251 2.42 4.4251 L0.84 4.4251 L0.84 0.8299 L4.16 0.8299 L4.16 1.3792 L1.45 1.3792 L1.45 3.8758 L2.42 3.8758 Q2.7 3.8758 2.975 3.9308 Q3.25 3.9857 3.495 4.1205 Q3.74 4.2553 3.93 4.47 Q4.12 4.6848 4.23 4.9394 Q4.34 5.1941 4.38 5.4737 Q4.42 5.7533 4.42 6.033 Q4.42 6.3126 4.38 6.5872 Q4.34 6.8619 4.24 7.1165 Q4.14 7.3712 3.975 7.5959 Q3.81 7.8206 3.58 7.9704 Q3.35 8.1202 3.075 8.1851 Q2.8 8.25 2.53 8.25 Z"/>
    </symbol>
    <symbol id="dtn-glyph-counter-6" viewBox="0 0 5 9">
      <path class="dtn-glyph-path dtn-glyph-path-counter" fill="currentColor" d="M2.5 8.25 Q2.22 8.25 1.945 8.1851 Q1.67 8.1202 1.435 7.9704 Q1.2 7.8206 1.03 7.5959 Q0.86 7.3712 0.755 7.1115 Q0.65 6.8519 0.615 6.5722 Q0.58 6.2926 0.58 6.013 Q0.58 5.6035 0.62 5.1891 Q0.66 4.7746 0.72 4.3652 Q0.78 3.9557 0.885 3.5563 Q0.99 3.1568 1.17 2.7823 Q1.35 2.4078 1.6 2.0732 Q1.85 1.7387 2.165 1.474 Q2.48 1.2094 2.855 1.0246 Q3.23 0.8399 3.64 0.75 L3.78 1.2893 Q3.42 1.3792 3.09 1.5589 Q2.76 1.7387 2.48 1.9883 Q2.2 2.238 1.99 2.5526 Q1.78 2.8672 1.64 3.2117 Q1.5 3.5563 1.42 3.9208 Q1.34 4.2853 1.3 4.6548 Q1.4 4.4551 1.545 4.2853 Q1.69 4.1155 1.875 3.9957 Q2.06 3.8758 2.28 3.8259 Q2.5 3.776 2.73 3.776 Q2.99 3.776 3.25 3.8509 Q3.51 3.9258 3.715 4.0905 Q3.92 4.2553 4.06 4.485 Q4.2 4.7147 4.28 4.9694 Q4.36 5.224 4.39 5.4887 Q4.42 5.7533 4.42 6.013 Q4.42 6.2926 4.385 6.5722 Q4.35 6.8519 4.245 7.1115 Q4.14 7.3712 3.97 7.5959 Q3.8 7.8206 3.565 7.9704 Q3.33 8.1202 3.055 8.1851 Q2.78 8.25 2.5 8.25 Z M2.5 7.7007 Q2.7 7.7007 2.9 7.6458 Q3.1 7.5909 3.26 7.466 Q3.42 7.3412 3.53 7.1714 Q3.64 7.0017 3.705 6.8119 Q3.77 6.6222 3.79 6.4174 Q3.81 6.2127 3.81 6.013 Q3.81 5.8132 3.79 5.6135 Q3.77 5.4138 3.705 5.219 Q3.64 5.0243 3.53 4.8545 Q3.42 4.6848 3.26 4.5599 Q3.1 4.4351 2.9 4.3802 Q2.7 4.3252 2.5 4.3252 Q2.24 4.3252 1.995 4.4251 Q1.75 4.525 1.58 4.7147 Q1.41 4.9045 1.32 5.1541 Q1.23 5.4038 1.2 5.6535 Q1.19 5.7433 1.19 5.8332 Q1.19 5.9231 1.19 6.013 Q1.19 6.2127 1.21 6.4174 Q1.23 6.6222 1.295 6.8119 Q1.36 7.0017 1.47 7.1714 Q1.58 7.3412 1.74 7.466 Q1.9 7.5909 2.1 7.6458 Q2.3 7.7007 2.5 7.7007 Z"/>
    </symbol>
    <symbol id="dtn-glyph-counter-7" viewBox="0 0 5 9">
      <path class="dtn-glyph-path dtn-glyph-path-counter" fill="currentColor" d="M1.51 8.1701 L3.71 1.3792 L0.66 1.3792 L0.66 0.8299 L4.34 0.8299 L4.34 1.3792 L2.15 8.1701 L1.51 8.1701 Z"/>
    </symbol>
    <symbol id="dtn-glyph-counter-8" viewBox="0 0 5 9">
      <path class="dtn-glyph-path dtn-glyph-path-counter" fill="currentColor" d="M2.5 8.25 Q2.26 8.25 2.02 8.215 Q1.78 8.1801 1.555 8.0852 Q1.33 7.9903 1.145 7.8306 Q0.96 7.6708 0.83 7.466 Q0.7 7.2613 0.64 7.0266 Q0.58 6.7919 0.58 6.5423 Q0.58 6.2127 0.695 5.8931 Q0.81 5.5736 1.01 5.3039 Q1.21 5.0343 1.465 4.8196 Q1.72 4.6049 2 4.4151 Q1.75 4.2254 1.52 4.0156 Q1.29 3.8059 1.115 3.5513 Q0.94 3.2966 0.835 2.997 Q0.73 2.6974 0.73 2.3878 Q0.73 2.1581 0.785 1.9384 Q0.84 1.7187 0.955 1.519 Q1.07 1.3192 1.24 1.1644 Q1.41 1.0097 1.615 0.9148 Q1.82 0.8199 2.045 0.785 Q2.27 0.75 2.5 0.75 Q2.73 0.75 2.955 0.785 Q3.18 0.8199 3.385 0.9148 Q3.59 1.0097 3.76 1.1644 Q3.93 1.3192 4.045 1.519 Q4.16 1.7187 4.215 1.9384 Q4.27 2.1581 4.27 2.3878 Q4.27 2.6974 4.165 2.997 Q4.06 3.2966 3.885 3.5513 Q3.71 3.8059 3.48 4.0156 Q3.25 4.2254 3 4.4151 Q3.28 4.6049 3.535 4.8196 Q3.79 5.0343 3.99 5.3039 Q4.19 5.5736 4.305 5.8931 Q4.42 6.2127 4.42 6.5423 Q4.42 6.7919 4.36 7.0266 Q4.3 7.2613 4.17 7.466 Q4.04 7.6708 3.855 7.8306 Q3.67 7.9903 3.445 8.0852 Q3.22 8.1801 2.98 8.215 Q2.74 8.25 2.5 8.25 Z M2.5 4.0656 Q2.72 3.9158 2.925 3.746 Q3.13 3.5762 3.295 3.3715 Q3.46 3.1668 3.56 2.9121 Q3.66 2.6575 3.66 2.3978 Q3.66 2.1681 3.58 1.9534 Q3.5 1.7387 3.335 1.5839 Q3.17 1.4291 2.95 1.3642 Q2.73 1.2993 2.5 1.2993 Q2.27 1.2993 2.05 1.3642 Q1.83 1.4291 1.665 1.5839 Q1.5 1.7387 1.42 1.9534 Q1.34 2.1681 1.34 2.3978 Q1.34 2.6575 1.44 2.9121 Q1.54 3.1668 1.705 3.3715 Q1.87 3.5762 2.075 3.746 Q2.28 3.9158 2.5 4.0656 Z M2.5 7.7007 Q2.75 7.7007 2.995 7.6358 Q3.24 7.5709 3.43 7.4111 Q3.62 7.2513 3.715 7.0166 Q3.81 6.782 3.81 6.5323 Q3.81 6.2527 3.695 5.978 Q3.58 5.7034 3.39 5.4837 Q3.2 5.264 2.97 5.0892 Q2.74 4.9144 2.5 4.7547 Q2.26 4.9144 2.03 5.0892 Q1.8 5.264 1.61 5.4837 Q1.42 5.7034 1.305 5.978 Q1.19 6.2527 1.19 6.5323 Q1.19 6.782 1.285 7.0166 Q1.38 7.2513 1.57 7.4111 Q1.76 7.5709 2.005 7.6358 Q2.25 7.7007 2.5 7.7007 Z"/>
    </symbol>
    <symbol id="dtn-glyph-counter-9" viewBox="0 0 5 9">
      <path class="dtn-glyph-path dtn-glyph-path-counter" fill="currentColor" d="M1.36 8.25 L1.22 7.7107 Q1.58 7.6208 1.91 7.4411 Q2.24 7.2613 2.52 7.0117 Q2.8 6.762 3.01 6.4474 Q3.22 6.1328 3.36 5.7883 Q3.5 5.4437 3.58 5.0792 Q3.66 4.7147 3.7 4.3452 Q3.6 4.5449 3.455 4.7147 Q3.31 4.8845 3.125 5.0043 Q2.94 5.1242 2.72 5.1741 Q2.5 5.224 2.27 5.224 Q2.01 5.224 1.75 5.1491 Q1.49 5.0742 1.285 4.9095 Q1.08 4.7447 0.94 4.515 Q0.8 4.2853 0.72 4.0306 Q0.64 3.776 0.61 3.5113 Q0.58 3.2467 0.58 2.987 Q0.58 2.7074 0.615 2.4278 Q0.65 2.1481 0.755 1.8885 Q0.86 1.6288 1.03 1.4041 Q1.2 1.1794 1.435 1.0296 Q1.67 0.8798 1.945 0.8149 Q2.22 0.75 2.5 0.75 Q2.78 0.75 3.055 0.8149 Q3.33 0.8798 3.565 1.0296 Q3.8 1.1794 3.97 1.4041 Q4.14 1.6288 4.245 1.8885 Q4.35 2.1481 4.385 2.4278 Q4.42 2.7074 4.42 2.987 Q4.42 3.3965 4.38 3.8109 Q4.34 4.2254 4.28 4.6348 Q4.22 5.0443 4.115 5.4437 Q4.01 5.8432 3.83 6.2177 Q3.65 6.5922 3.4 6.9268 Q3.15 7.2613 2.835 7.526 Q2.52 7.7906 2.145 7.9754 Q1.77 8.1601 1.36 8.25 Z M2.5 4.6748 Q2.76 4.6748 3.005 4.5749 Q3.25 4.475 3.42 4.2853 Q3.59 4.0955 3.68 3.8459 Q3.77 3.5962 3.8 3.3465 Q3.81 3.2567 3.81 3.1668 Q3.81 3.0769 3.81 2.987 Q3.81 2.7873 3.79 2.5826 Q3.77 2.3778 3.705 2.1881 Q3.64 1.9983 3.53 1.8286 Q3.42 1.6588 3.26 1.534 Q3.1 1.4091 2.9 1.3542 Q2.7 1.2993 2.5 1.2993 Q2.3 1.2993 2.1 1.3542 Q1.9 1.4091 1.74 1.534 Q1.58 1.6588 1.47 1.8286 Q1.36 1.9983 1.295 2.1881 Q1.23 2.3778 1.21 2.5826 Q1.19 2.7873 1.19 2.987 Q1.19 3.1868 1.21 3.3865 Q1.23 3.5862 1.295 3.781 Q1.36 3.9757 1.47 4.1455 Q1.58 4.3152 1.74 4.4401 Q1.9 4.5649 2.1 4.6198 Q2.3 4.6748 2.5 4.6748 Z"/>
    </symbol>
    <symbol id="dtn-glyph-cell-0" viewBox="0 0 4 5">
      <path class="dtn-glyph-path dtn-glyph-path-cell" fill="currentColor" d="M2 4.5833 Q1.8611 4.5833 1.725 4.5695 Q1.5889 4.5556 1.4556 4.5223 Q1.3222 4.489 1.1972 4.428 Q1.0722 4.367 0.9667 4.281 Q0.8611 4.195 0.7778 4.0868 Q0.6944 3.9786 0.6389 3.851 Q0.5833 3.7234 0.5639 3.5874 Q0.5444 3.4515 0.5444 3.3128 L0.5444 1.6872 Q0.5444 1.5485 0.5639 1.4126 Q0.5833 1.2766 0.6389 1.149 Q0.6944 1.0214 0.7778 0.9132 Q0.8611 0.805 0.9667 0.719 Q1.0722 0.633 1.1972 0.572 Q1.3222 0.511 1.4556 0.4777 Q1.5889 0.4444 1.725 0.4305 Q1.8611 0.4167 2 0.4167 Q2.1389 0.4167 2.275 0.4305 Q2.4111 0.4444 2.5444 0.4777 Q2.6778 0.511 2.8028 0.572 Q2.9278 0.633 3.0333 0.719 Q3.1389 0.805 3.2222 0.9132 Q3.3056 1.0214 3.3611 1.149 Q3.4167 1.2766 3.4361 1.4126 Q3.4556 1.5485 3.4556 1.6872 L3.4556 3.3128 Q3.4556 3.4515 3.4361 3.5874 Q3.4167 3.7234 3.3611 3.851 Q3.3056 3.9786 3.2222 4.0868 Q3.1389 4.195 3.0333 4.281 Q2.9278 4.367 2.8028 4.428 Q2.6778 4.489 2.5444 4.5223 Q2.4111 4.5556 2.275 4.5695 Q2.1389 4.5833 2 4.5833 Z M1.4222 2.6692 L2.5611 1.5041 Q2.5389 1.4153 2.4861 1.3349 Q2.4333 1.2544 2.3556 1.2045 Q2.2778 1.1546 2.1861 1.1352 Q2.0944 1.1157 2 1.1157 Q1.8833 1.1157 1.7694 1.149 Q1.6556 1.1823 1.5722 1.2628 Q1.4889 1.3432 1.4556 1.4569 Q1.4222 1.5707 1.4222 1.6872 L1.4222 2.6692 Z M2 3.8843 Q2.1167 3.8843 2.2306 3.851 Q2.3444 3.8177 2.4278 3.7372 Q2.5111 3.6568 2.5444 3.5431 Q2.5778 3.4293 2.5778 3.3128 L2.5778 2.3308 L1.4389 3.4959 Q1.4611 3.5847 1.5139 3.6651 Q1.5667 3.7456 1.6444 3.7955 Q1.7222 3.8454 1.8139 3.8648 Q1.9056 3.8843 2 3.8843 Z"/>
    </symbol>
    <symbol id="dtn-glyph-cell-1" viewBox="0 0 4 5">
      <path class="dtn-glyph-path dtn-glyph-path-cell" fill="currentColor" d="M0.7111 4.5389 L0.7111 3.8399 L1.6056 3.8399 L1.6056 1.3654 L1.25 1.7371 L0.75 1.3599 L1.6056 0.4611 L2.4778 0.4611 L2.4778 3.8399 L3.2889 3.8399 L3.2889 4.5389 L0.7111 4.5389 Z"/>
    </symbol>
    <symbol id="dtn-glyph-cell-2" viewBox="0 0 4 5">
      <path class="dtn-glyph-path dtn-glyph-path-cell" fill="currentColor" d="M0.5889 4.5389 L0.5889 3.8399 L2.1222 2.3918 Q2.2 2.3197 2.2806 2.2392 Q2.3611 2.1588 2.425 2.0672 Q2.4889 1.9757 2.5222 1.8675 Q2.5556 1.7593 2.5556 1.6484 Q2.5556 1.5374 2.5222 1.432 Q2.4889 1.3266 2.4083 1.2517 Q2.3278 1.1768 2.2222 1.1462 Q2.1167 1.1157 2.0056 1.1157 Q1.9056 1.1157 1.8111 1.1352 Q1.7167 1.1546 1.6333 1.2073 Q1.55 1.26 1.5028 1.346 Q1.4556 1.432 1.4556 1.5318 L1.4556 1.5429 L0.5778 1.5429 L0.5778 1.5097 Q0.5778 1.3432 0.6333 1.1795 Q0.6889 1.0159 0.7917 0.8827 Q0.8944 0.7496 1.0389 0.658 Q1.1833 0.5665 1.3417 0.511 Q1.5 0.4555 1.6694 0.4361 Q1.8389 0.4167 2.0056 0.4167 Q2.1833 0.4167 2.3611 0.4416 Q2.5389 0.4666 2.7056 0.5304 Q2.8722 0.5942 3.0167 0.7052 Q3.1611 0.8161 3.2583 0.9659 Q3.3556 1.1157 3.3944 1.2905 Q3.4333 1.4653 3.4333 1.6484 Q3.4333 1.8314 3.3806 2.0118 Q3.3278 2.1921 3.2278 2.3474 Q3.1278 2.5028 2.9972 2.6332 Q2.8667 2.7635 2.7278 2.8911 L2.7222 2.8967 L2.7222 2.9022 L1.7278 3.8399 L3.4111 3.8399 L3.4111 4.5389 L0.5889 4.5389 Z"/>
    </symbol>
    <symbol id="dtn-glyph-cell-3" viewBox="0 0 4 5">
      <path class="dtn-glyph-path dtn-glyph-path-cell" fill="currentColor" d="M2.0167 4.5833 Q1.8444 4.5833 1.6722 4.5639 Q1.5 4.5445 1.3361 4.4918 Q1.1722 4.4391 1.0222 4.3475 Q0.8722 4.256 0.7611 4.1256 Q0.65 3.9952 0.5917 3.8288 Q0.5333 3.6623 0.5333 3.4903 L0.5333 3.4571 L1.4111 3.4571 L1.4111 3.4682 Q1.4111 3.5736 1.4694 3.6623 Q1.5278 3.7511 1.6167 3.801 Q1.7056 3.851 1.8083 3.8676 Q1.9111 3.8843 2.0167 3.8843 Q2.1278 3.8843 2.2361 3.8621 Q2.3444 3.8399 2.4333 3.7789 Q2.5222 3.7178 2.575 3.618 Q2.6278 3.5181 2.6278 3.4071 Q2.6278 3.3073 2.5861 3.2129 Q2.5444 3.1186 2.475 3.0437 Q2.4056 2.9688 2.3139 2.9189 Q2.2222 2.869 2.1222 2.844 Q2.0222 2.819 1.9222 2.8135 Q1.8222 2.8079 1.7167 2.8079 L1.7167 2.1144 Q1.8111 2.1144 1.9056 2.1089 Q2 2.1033 2.0889 2.0783 Q2.1778 2.0534 2.2611 2.0062 Q2.3444 1.9591 2.4056 1.8897 Q2.4667 1.8204 2.5028 1.7316 Q2.5389 1.6428 2.5389 1.554 Q2.5389 1.4542 2.4972 1.3654 Q2.4556 1.2766 2.3806 1.2184 Q2.3056 1.1601 2.2083 1.1379 Q2.1111 1.1157 2.0167 1.1157 Q1.9222 1.1157 1.8306 1.1352 Q1.7389 1.1546 1.6611 1.2073 Q1.5833 1.26 1.5417 1.346 Q1.5 1.432 1.5 1.5263 L1.5 1.5429 L0.6222 1.5429 L0.6222 1.5041 Q0.6222 1.3377 0.675 1.1768 Q0.7278 1.0159 0.8278 0.8855 Q0.9278 0.7551 1.0667 0.6608 Q1.2056 0.5665 1.3639 0.511 Q1.5222 0.4555 1.6861 0.4361 Q1.85 0.4167 2.0167 0.4167 Q2.1833 0.4167 2.3528 0.4389 Q2.5222 0.4611 2.6778 0.5193 Q2.8333 0.5776 2.975 0.6774 Q3.1167 0.7773 3.2139 0.9132 Q3.3111 1.0492 3.3611 1.2128 Q3.4111 1.3765 3.4111 1.5429 Q3.4111 1.6816 3.3722 1.8204 Q3.3333 1.9591 3.2583 2.0783 Q3.1833 2.1976 3.075 2.2919 Q2.9667 2.3863 2.8444 2.4473 Q2.9833 2.5139 3.1083 2.611 Q3.2333 2.7081 3.3194 2.8357 Q3.4056 2.9633 3.4528 3.1131 Q3.5 3.2629 3.5 3.4182 Q3.5 3.5958 3.4444 3.765 Q3.3889 3.9342 3.2833 4.0757 Q3.1778 4.2172 3.0278 4.3198 Q2.8778 4.4224 2.7111 4.4807 Q2.5444 4.5389 2.3694 4.5611 Q2.1944 4.5833 2.0167 4.5833 Z"/>
    </symbol>
    <symbol id="dtn-glyph-cell-4" viewBox="0 0 4 5">
      <path class="dtn-glyph-path dtn-glyph-path-cell" fill="currentColor" d="M2.2444 4.5389 L2.2444 3.7789 L0.5444 3.7789 L0.5444 3.0853 L2.0556 0.4611 L3.1167 0.4611 L3.1167 3.0853 L3.4111 3.0853 L3.4111 3.7789 L3.1167 3.7789 L3.1167 4.5389 L2.2444 4.5389 Z M1.3667 3.0853 L2.2444 3.0853 L2.2444 1.5596 L1.3667 3.0853 Z"/>
    </symbol>
    <symbol id="dtn-glyph-cell-5" viewBox="0 0 4 5">
      <path class="dtn-glyph-path dtn-glyph-path-cell" fill="currentColor" d="M2.0167 4.5833 Q1.8556 4.5833 1.6917 4.5639 Q1.5278 4.5445 1.375 4.4973 Q1.2222 4.4502 1.0806 4.3642 Q0.9389 4.2782 0.8306 4.1589 Q0.7222 4.0396 0.6583 3.887 Q0.5944 3.7345 0.5833 3.5736 L1.4667 3.5736 Q1.4944 3.6568 1.5528 3.7206 Q1.6111 3.7844 1.6861 3.8205 Q1.7611 3.8565 1.8444 3.8704 Q1.9278 3.8843 2.0167 3.8843 Q2.1333 3.8843 2.2444 3.8482 Q2.3556 3.8121 2.4361 3.7261 Q2.5167 3.6401 2.5472 3.5264 Q2.5778 3.4127 2.5778 3.2962 Q2.5778 3.1686 2.5361 3.052 Q2.4944 2.9355 2.4 2.8579 Q2.3056 2.7802 2.1833 2.7497 Q2.0611 2.7192 1.9389 2.7192 L0.7278 2.7192 L0.7278 0.4611 L3.2722 0.4611 L3.2722 1.1601 L1.6056 1.1601 L1.6056 2.0201 L1.9389 2.0201 Q2.1222 2.0201 2.3111 2.0451 Q2.5 2.07 2.675 2.1338 Q2.85 2.1976 3.0056 2.3086 Q3.1611 2.4196 3.2667 2.5749 Q3.3722 2.7302 3.4139 2.9161 Q3.4556 3.102 3.4556 3.2906 Q3.4556 3.4737 3.4167 3.654 Q3.3778 3.8343 3.2833 3.9925 Q3.1889 4.1506 3.0444 4.2699 Q2.9 4.3891 2.7306 4.4585 Q2.5611 4.5279 2.3806 4.5556 Q2.2 4.5833 2.0167 4.5833 Z"/>
    </symbol>
    <symbol id="dtn-glyph-cell-6" viewBox="0 0 4 5">
      <path class="dtn-glyph-path dtn-glyph-path-cell" fill="currentColor" d="M2 4.5833 Q1.8111 4.5833 1.625 4.5556 Q1.4389 4.5279 1.2667 4.453 Q1.0944 4.3781 0.95 4.2532 Q0.8056 4.1284 0.7111 3.9647 Q0.6167 3.801 0.5806 3.6152 Q0.5444 3.4293 0.5444 3.2407 Q0.5444 2.9966 0.5778 2.7497 Q0.6111 2.5028 0.6667 2.2614 Q0.7222 2.0201 0.825 1.7898 Q0.9278 1.5596 1.0806 1.3654 Q1.2333 1.1712 1.4222 1.0075 Q1.6111 0.8439 1.8306 0.7246 Q2.05 0.6053 2.2861 0.5276 Q2.5222 0.45 2.7667 0.4167 L2.8944 1.1046 Q2.6611 1.149 2.4444 1.2517 Q2.2278 1.3543 2.05 1.5097 Q1.8722 1.665 1.7444 1.8675 Q1.6167 2.07 1.5556 2.2975 Q1.6222 2.1976 1.7139 2.12 Q1.8056 2.0423 1.9139 1.9923 Q2.0222 1.9424 2.1417 1.923 Q2.2611 1.9036 2.3778 1.9036 Q2.5389 1.9036 2.7 1.9452 Q2.8611 1.9868 2.9917 2.0811 Q3.1222 2.1754 3.2167 2.3114 Q3.3111 2.4473 3.3639 2.6026 Q3.4167 2.758 3.4361 2.9189 Q3.4556 3.0798 3.4556 3.2407 Q3.4556 3.4293 3.4194 3.6152 Q3.3833 3.801 3.2889 3.9647 Q3.1944 4.1284 3.05 4.2532 Q2.9056 4.3781 2.7333 4.453 Q2.5611 4.5279 2.375 4.5556 Q2.1889 4.5833 2 4.5833 Z M2 3.8843 Q2.1222 3.8843 2.2417 3.8399 Q2.3611 3.7955 2.4389 3.7012 Q2.5167 3.6069 2.5472 3.4876 Q2.5778 3.3683 2.5778 3.2407 Q2.5778 3.1186 2.5472 2.9966 Q2.5167 2.8745 2.4389 2.7802 Q2.3611 2.6859 2.2417 2.6443 Q2.1222 2.6026 2 2.6026 Q1.8944 2.6026 1.7917 2.6332 Q1.6889 2.6637 1.6083 2.733 Q1.5278 2.8024 1.4833 2.8995 Q1.4389 2.9966 1.4278 3.102 Q1.4222 3.1353 1.4222 3.1713 Q1.4222 3.2074 1.4222 3.2407 Q1.4222 3.3683 1.4528 3.4876 Q1.4833 3.6069 1.5611 3.7012 Q1.6389 3.7955 1.7583 3.8399 Q1.8778 3.8843 2 3.8843 Z"/>
    </symbol>
    <symbol id="dtn-glyph-cell-7" viewBox="0 0 4 5">
      <path class="dtn-glyph-path dtn-glyph-path-cell" fill="currentColor" d="M2.0333 4.5389 L1.1167 4.5389 L2.4944 1.1601 L0.5889 1.1601 L0.5889 0.4611 L3.4111 0.4611 L3.4111 1.1601 L2.0333 4.5389 Z"/>
    </symbol>
    <symbol id="dtn-glyph-cell-8" viewBox="0 0 4 5">
      <path class="dtn-glyph-path dtn-glyph-path-cell" fill="currentColor" d="M2 4.5833 Q1.8222 4.5833 1.6472 4.5584 Q1.4722 4.5334 1.3056 4.4724 Q1.1389 4.4113 0.9944 4.3032 Q0.85 4.195 0.75 4.0479 Q0.65 3.9009 0.5944 3.7317 Q0.5389 3.5625 0.5389 3.3849 Q0.5389 3.2407 0.5778 3.102 Q0.6167 2.9633 0.6917 2.8384 Q0.7667 2.7136 0.8694 2.6137 Q0.9722 2.5139 1.0944 2.4306 Q0.9944 2.353 0.9139 2.2587 Q0.8333 2.1643 0.775 2.0534 Q0.7167 1.9424 0.6861 1.8176 Q0.6556 1.6927 0.6556 1.5707 Q0.6556 1.4042 0.7056 1.2433 Q0.7556 1.0824 0.8444 0.941 Q0.9333 0.7995 1.0639 0.6941 Q1.1944 0.5887 1.35 0.5276 Q1.5056 0.4666 1.6694 0.4416 Q1.8333 0.4167 2 0.4167 Q2.1667 0.4167 2.3306 0.4416 Q2.4944 0.4666 2.65 0.5276 Q2.8056 0.5887 2.9361 0.6941 Q3.0667 0.7995 3.1556 0.941 Q3.2444 1.0824 3.2944 1.2433 Q3.3444 1.4042 3.3444 1.5707 Q3.3444 1.6927 3.3139 1.8176 Q3.2833 1.9424 3.225 2.0534 Q3.1667 2.1643 3.0861 2.2587 Q3.0056 2.353 2.9056 2.4306 Q3.0278 2.5139 3.1306 2.6137 Q3.2333 2.7136 3.3083 2.8384 Q3.3833 2.9633 3.4222 3.102 Q3.4611 3.2407 3.4611 3.3849 Q3.4611 3.5625 3.4056 3.7317 Q3.35 3.9009 3.25 4.0479 Q3.15 4.195 3.0056 4.3032 Q2.8611 4.4113 2.6944 4.4724 Q2.5278 4.5334 2.3528 4.5584 Q2.1778 4.5833 2 4.5833 Z M2 2.0867 Q2.0889 2.0589 2.175 2.0145 Q2.2611 1.9702 2.325 1.9036 Q2.3889 1.837 2.4278 1.7482 Q2.4667 1.6595 2.4667 1.5651 Q2.4667 1.4764 2.4333 1.3876 Q2.4 1.2988 2.3361 1.235 Q2.2722 1.1712 2.1833 1.1435 Q2.0944 1.1157 2 1.1157 Q1.9056 1.1157 1.8167 1.1435 Q1.7278 1.1712 1.6639 1.235 Q1.6 1.2988 1.5667 1.3876 Q1.5333 1.4764 1.5333 1.5651 Q1.5333 1.6595 1.5722 1.7482 Q1.6111 1.837 1.675 1.9036 Q1.7389 1.9702 1.825 2.0145 Q1.9111 2.0589 2 2.0867 Z M2 3.8843 Q2.1056 3.8843 2.2139 3.8593 Q2.3222 3.8343 2.4056 3.7678 Q2.4889 3.7012 2.5361 3.5985 Q2.5833 3.4959 2.5833 3.3849 Q2.5833 3.2795 2.5333 3.1796 Q2.4833 3.0798 2.3972 3.0077 Q2.3111 2.9355 2.2083 2.8967 Q2.1056 2.8579 2 2.8301 Q1.8944 2.8579 1.7917 2.8967 Q1.6889 2.9355 1.6028 3.0077 Q1.5167 3.0798 1.4667 3.1796 Q1.4167 3.2795 1.4167 3.3849 Q1.4167 3.4959 1.4639 3.5985 Q1.5111 3.7012 1.5944 3.7678 Q1.6778 3.8343 1.7861 3.8593 Q1.8944 3.8843 2 3.8843 Z"/>
    </symbol>
    <symbol id="dtn-glyph-ui-0" viewBox="0 0 5 9">
      <path class="dtn-glyph-path dtn-glyph-path-ui" fill="currentColor" d="M2.5 8.25 Q2.23 8.25 1.965 8.1951 Q1.7 8.1401 1.465 8.0103 Q1.23 7.8805 1.045 7.6758 Q0.86 7.471 0.75 7.2264 Q0.64 6.9817 0.6 6.7121 Q0.56 6.4424 0.56 6.1728 L0.56 2.8272 Q0.56 2.5576 0.6 2.2879 Q0.64 2.0183 0.75 1.7736 Q0.86 1.529 1.045 1.3242 Q1.23 1.1195 1.465 0.9897 Q1.7 0.8599 1.965 0.8049 Q2.23 0.75 2.5 0.75 Q2.77 0.75 3.035 0.8049 Q3.3 0.8599 3.535 0.9897 Q3.77 1.1195 3.955 1.3242 Q4.14 1.529 4.25 1.7736 Q4.36 2.0183 4.4 2.2879 Q4.44 2.5576 4.44 2.8272 L4.44 6.1728 Q4.44 6.4424 4.4 6.7121 Q4.36 6.9817 4.25 7.2264 Q4.14 7.471 3.955 7.6758 Q3.77 7.8805 3.535 8.0103 Q3.3 8.1401 3.035 8.1951 Q2.77 8.25 2.5 8.25 Z M1.34 5.6235 L3.6 2.2979 Q3.55 2.1182 3.455 1.9534 Q3.36 1.7886 3.21 1.6688 Q3.06 1.5489 2.875 1.499 Q2.69 1.4491 2.5 1.4491 Q2.33 1.4491 2.16 1.489 Q1.99 1.529 1.85 1.6238 Q1.71 1.7187 1.605 1.8585 Q1.5 1.9983 1.44 2.1581 Q1.38 2.3179 1.36 2.4877 Q1.34 2.6575 1.34 2.8272 L1.34 5.6235 Z M2.5 7.5509 Q2.67 7.5509 2.84 7.511 Q3.01 7.471 3.15 7.3762 Q3.29 7.2813 3.395 7.1415 Q3.5 7.0017 3.56 6.8419 Q3.62 6.6821 3.64 6.5123 Q3.66 6.3425 3.66 6.1728 L3.66 3.3765 L1.4 6.7021 Q1.45 6.8818 1.545 7.0466 Q1.64 7.2114 1.79 7.3312 Q1.94 7.4511 2.125 7.501 Q2.31 7.5509 2.5 7.5509 Z"/>
    </symbol>
    <symbol id="dtn-glyph-ui-1" viewBox="0 0 5 9">
      <path class="dtn-glyph-path dtn-glyph-path-ui" fill="currentColor" d="M0.75 8.1701 L0.75 7.471 L2.19 7.471 L2.19 1.6588 L0.78 2.7573 L0.35 2.268 L2.19 0.8299 L2.96 0.8299 L2.96 7.471 L4.25 7.471 L4.25 8.1701 L0.75 8.1701 Z"/>
    </symbol>
    <symbol id="dtn-glyph-ui-2" viewBox="0 0 5 9">
      <path class="dtn-glyph-path dtn-glyph-path-ui" fill="currentColor" d="M0.64 8.1701 L0.64 7.471 L2.84 4.505 Q2.98 4.3152 3.125 4.1155 Q3.27 3.9158 3.385 3.6961 Q3.5 3.4764 3.56 3.2417 Q3.62 3.007 3.62 2.7573 Q3.62 2.5176 3.565 2.273 Q3.51 2.0283 3.365 1.8336 Q3.22 1.6388 2.985 1.5439 Q2.75 1.4491 2.51 1.4491 Q2.28 1.4491 2.065 1.524 Q1.85 1.5989 1.695 1.7636 Q1.54 1.9284 1.47 2.1431 Q1.4 2.3579 1.4 2.5875 L1.4 2.6275 L0.62 2.6275 L0.62 2.5676 Q0.62 2.3179 0.675 2.0732 Q0.73 1.8286 0.85 1.6138 Q0.97 1.3991 1.15 1.2244 Q1.33 1.0496 1.55 0.9397 Q1.77 0.8299 2.015 0.7899 Q2.26 0.75 2.51 0.75 Q2.77 0.75 3.03 0.7999 Q3.29 0.8499 3.52 0.9797 Q3.75 1.1095 3.925 1.3043 Q4.1 1.499 4.21 1.7387 Q4.32 1.9784 4.36 2.238 Q4.4 2.4977 4.4 2.7573 Q4.4 3.0569 4.33 3.3465 Q4.26 3.6362 4.13 3.9058 Q4 4.1754 3.83 4.4151 Q3.66 4.6548 3.48 4.8945 L3.47 4.9144 Q3.46 4.9144 3.46 4.9144 L3.46 4.9244 L1.57 7.471 L4.36 7.471 L4.36 8.1701 L0.64 8.1701 Z"/>
    </symbol>
    <symbol id="dtn-glyph-ui-3" viewBox="0 0 5 9">
      <path class="dtn-glyph-path dtn-glyph-path-ui" fill="currentColor" d="M2.53 8.25 Q2.27 8.25 2.02 8.2101 Q1.77 8.1701 1.535 8.0652 Q1.3 7.9604 1.11 7.7856 Q0.92 7.6109 0.79 7.3911 Q0.66 7.1714 0.6 6.9218 Q0.54 6.6721 0.54 6.4124 L0.54 6.3725 L1.32 6.3725 L1.32 6.4025 Q1.32 6.6322 1.405 6.8619 Q1.49 7.0915 1.66 7.2513 Q1.83 7.4111 2.06 7.481 Q2.29 7.5509 2.53 7.5509 Q2.78 7.5509 3.025 7.4611 Q3.27 7.3712 3.435 7.1764 Q3.6 6.9817 3.67 6.732 Q3.74 6.4824 3.74 6.2227 Q3.74 6.013 3.695 5.8083 Q3.65 5.6035 3.55 5.4188 Q3.45 5.234 3.295 5.0892 Q3.14 4.9444 2.95 4.8595 Q2.76 4.7746 2.55 4.7497 Q2.34 4.7247 2.13 4.7247 L2.13 4.0256 Q2.32 4.0256 2.51 4.0057 Q2.7 3.9857 2.875 3.9108 Q3.05 3.8359 3.19 3.7011 Q3.33 3.5662 3.415 3.3965 Q3.5 3.2267 3.54 3.037 Q3.58 2.8472 3.58 2.6575 Q3.58 2.4278 3.525 2.2081 Q3.47 1.9883 3.33 1.8086 Q3.19 1.6288 2.975 1.5389 Q2.76 1.4491 2.53 1.4491 Q2.31 1.4491 2.1 1.529 Q1.89 1.6089 1.745 1.7736 Q1.6 1.9384 1.54 2.1531 Q1.48 2.3678 1.48 2.5875 L1.48 2.6275 L0.7 2.6275 L0.7 2.5576 Q0.7 2.3179 0.755 2.0782 Q0.81 1.8385 0.92 1.6238 Q1.03 1.4091 1.2 1.2344 Q1.37 1.0596 1.59 0.9497 Q1.81 0.8399 2.05 0.7949 Q2.29 0.75 2.53 0.75 Q2.78 0.75 3.025 0.7999 Q3.27 0.8499 3.485 0.9647 Q3.7 1.0796 3.87 1.2643 Q4.04 1.4491 4.15 1.6738 Q4.26 1.8985 4.31 2.1431 Q4.36 2.3878 4.36 2.6375 Q4.36 2.9071 4.295 3.1668 Q4.23 3.4264 4.095 3.6611 Q3.96 3.8958 3.76 4.0756 Q3.56 4.2553 3.32 4.3652 Q3.59 4.475 3.825 4.6698 Q4.06 4.8645 4.215 5.1142 Q4.37 5.3638 4.445 5.6585 Q4.52 5.9531 4.52 6.2427 Q4.52 6.5123 4.465 6.777 Q4.41 7.0416 4.29 7.2763 Q4.17 7.511 3.98 7.7057 Q3.79 7.9005 3.555 8.0253 Q3.32 8.1501 3.055 8.2001 Q2.79 8.25 2.53 8.25 Z"/>
    </symbol>
    <symbol id="dtn-glyph-ui-4" viewBox="0 0 5 9">
      <path class="dtn-glyph-path dtn-glyph-path-ui" fill="currentColor" d="M3.06 8.1701 L3.06 6.5922 L0.56 6.5922 L0.56 5.8931 L2.88 0.8299 L3.83 0.8299 L3.83 5.8931 L4.36 5.8931 L4.36 6.5922 L3.83 6.5922 L3.83 8.1701 L3.06 8.1701 Z M3.06 5.8931 L3.06 2.1481 L1.34 5.8931 L3.06 5.8931 Z"/>
    </symbol>
    <symbol id="dtn-glyph-ui-5" viewBox="0 0 5 9">
      <path class="dtn-glyph-path dtn-glyph-path-ui" fill="currentColor" d="M2.53 8.25 Q2.29 8.25 2.055 8.2101 Q1.82 8.1701 1.605 8.0702 Q1.39 7.9704 1.21 7.8106 Q1.03 7.6508 0.905 7.4511 Q0.78 7.2513 0.71 7.0216 Q0.64 6.7919 0.63 6.5523 L1.41 6.5523 Q1.43 6.762 1.515 6.9567 Q1.6 7.1515 1.755 7.2913 Q1.91 7.4311 2.115 7.491 Q2.32 7.5509 2.53 7.5509 Q2.71 7.5509 2.885 7.496 Q3.06 7.4411 3.195 7.3262 Q3.33 7.2114 3.425 7.0516 Q3.52 6.8918 3.57 6.722 Q3.62 6.5523 3.64 6.3725 Q3.66 6.1927 3.66 6.013 Q3.66 5.8332 3.64 5.6485 Q3.62 5.4637 3.555 5.2889 Q3.49 5.1142 3.38 4.9644 Q3.27 4.8146 3.115 4.7097 Q2.96 4.6049 2.78 4.5649 Q2.6 4.525 2.42 4.525 L0.83 4.525 L0.83 0.8299 L4.17 0.8299 L4.17 1.529 L1.6 1.529 L1.6 3.8259 L2.42 3.8259 Q2.7 3.8259 2.98 3.8808 Q3.26 3.9358 3.51 4.0756 Q3.76 4.2154 3.945 4.4301 Q4.13 4.6448 4.245 4.9045 Q4.36 5.1641 4.4 5.4487 Q4.44 5.7334 4.44 6.013 Q4.44 6.2926 4.4 6.5672 Q4.36 6.8419 4.26 7.1015 Q4.16 7.3612 3.99 7.5909 Q3.82 7.8206 3.585 7.9704 Q3.35 8.1202 3.075 8.1851 Q2.8 8.25 2.53 8.25 Z"/>
    </symbol>
    <symbol id="dtn-glyph-ui-6" viewBox="0 0 5 9">
      <path class="dtn-glyph-path dtn-glyph-path-ui" fill="currentColor" d="M2.5 8.25 Q2.22 8.25 1.94 8.1851 Q1.66 8.1202 1.425 7.9654 Q1.19 7.8106 1.015 7.5809 Q0.84 7.3512 0.74 7.0866 Q0.64 6.8219 0.6 6.5423 Q0.56 6.2626 0.56 5.973 Q0.56 5.5636 0.6 5.1541 Q0.64 4.7447 0.7 4.3402 Q0.76 3.9358 0.865 3.5363 Q0.97 3.1368 1.15 2.7673 Q1.33 2.3978 1.58 2.0632 Q1.83 1.7287 2.145 1.469 Q2.46 1.2094 2.835 1.0246 Q3.21 0.8399 3.61 0.75 L3.79 1.4291 Q3.46 1.519 3.15 1.6838 Q2.84 1.8485 2.585 2.0832 Q2.33 2.3179 2.13 2.6075 Q1.93 2.8971 1.795 3.2167 Q1.66 3.5363 1.58 3.8758 Q1.5 4.2154 1.46 4.5549 Q1.55 4.3652 1.685 4.2004 Q1.82 4.0356 2 3.9208 Q2.18 3.8059 2.39 3.756 Q2.6 3.7061 2.81 3.7061 Q3.07 3.7061 3.33 3.786 Q3.59 3.8658 3.785 4.0406 Q3.98 4.2154 4.11 4.4501 Q4.24 4.6848 4.315 4.9344 Q4.39 5.1841 4.415 5.4487 Q4.44 5.7134 4.44 5.973 Q4.44 6.2626 4.4 6.5423 Q4.36 6.8219 4.26 7.0866 Q4.16 7.3512 3.985 7.5809 Q3.81 7.8106 3.575 7.9654 Q3.34 8.1202 3.06 8.1851 Q2.78 8.25 2.5 8.25 Z M2.5 7.5509 Q2.68 7.5509 2.86 7.496 Q3.04 7.4411 3.185 7.3212 Q3.33 7.2014 3.425 7.0416 Q3.52 6.8818 3.57 6.7071 Q3.62 6.5323 3.64 6.3475 Q3.66 6.1628 3.66 5.973 Q3.66 5.7933 3.64 5.6085 Q3.62 5.4238 3.57 5.249 Q3.52 5.0742 3.425 4.9144 Q3.33 4.7547 3.185 4.6348 Q3.04 4.515 2.86 4.4601 Q2.68 4.4051 2.5 4.4051 Q2.27 4.4051 2.045 4.5 Q1.82 4.5949 1.675 4.7746 Q1.53 4.9544 1.45 5.1791 Q1.37 5.4038 1.35 5.6435 Q1.34 5.7234 1.34 5.8083 Q1.34 5.8931 1.34 5.973 Q1.34 6.1628 1.36 6.3475 Q1.38 6.5323 1.43 6.7071 Q1.48 6.8818 1.575 7.0416 Q1.67 7.2014 1.815 7.3212 Q1.96 7.4411 2.14 7.496 Q2.32 7.5509 2.5 7.5509 Z"/>
    </symbol>
    <symbol id="dtn-glyph-ui-7" viewBox="0 0 5 9">
      <path class="dtn-glyph-path dtn-glyph-path-ui" fill="currentColor" d="M1.46 8.1701 L3.55 1.529 L0.64 1.529 L0.64 0.8299 L4.36 0.8299 L4.36 1.529 L2.26 8.1701 L1.46 8.1701 Z"/>
    </symbol>
    <symbol id="dtn-glyph-ui-8" viewBox="0 0 5 9">
      <path class="dtn-glyph-path dtn-glyph-path-ui" fill="currentColor" d="M2.5 8.25 Q2.26 8.25 2.015 8.215 Q1.77 8.1801 1.545 8.0802 Q1.32 7.9804 1.13 7.8206 Q0.94 7.6608 0.81 7.4511 Q0.68 7.2413 0.62 7.0067 Q0.56 6.772 0.56 6.5223 Q0.56 6.2027 0.67 5.8881 Q0.78 5.5736 0.965 5.3089 Q1.15 5.0443 1.39 4.8246 Q1.63 4.6049 1.89 4.4051 Q1.65 4.2154 1.435 4.0057 Q1.22 3.7959 1.06 3.5413 Q0.9 3.2866 0.805 2.997 Q0.71 2.7074 0.71 2.4078 Q0.71 2.1781 0.765 1.9534 Q0.82 1.7287 0.935 1.529 Q1.05 1.3292 1.225 1.1744 Q1.4 1.0196 1.605 0.9198 Q1.81 0.8199 2.04 0.785 Q2.27 0.75 2.5 0.75 Q2.73 0.75 2.96 0.785 Q3.19 0.8199 3.395 0.9198 Q3.6 1.0196 3.775 1.1744 Q3.95 1.3292 4.065 1.529 Q4.18 1.7287 4.235 1.9534 Q4.29 2.1781 4.29 2.4078 Q4.29 2.7074 4.195 2.997 Q4.1 3.2866 3.94 3.5413 Q3.78 3.7959 3.565 4.0057 Q3.35 4.2154 3.11 4.4051 Q3.37 4.6049 3.61 4.8246 Q3.85 5.0443 4.035 5.3089 Q4.22 5.5736 4.33 5.8881 Q4.44 6.2027 4.44 6.5223 Q4.44 6.772 4.38 7.0067 Q4.32 7.2413 4.19 7.4511 Q4.06 7.6608 3.87 7.8206 Q3.68 7.9804 3.455 8.0802 Q3.23 8.1801 2.985 8.215 Q2.74 8.25 2.5 8.25 Z M2.5 3.9657 Q2.69 3.8159 2.87 3.6561 Q3.05 3.4963 3.19 3.3066 Q3.33 3.1168 3.42 2.8872 Q3.51 2.6575 3.51 2.4178 Q3.51 2.228 3.44 2.0333 Q3.37 1.8385 3.23 1.7037 Q3.09 1.5689 2.895 1.509 Q2.7 1.4491 2.5 1.4491 Q2.3 1.4491 2.105 1.509 Q1.91 1.5689 1.77 1.7037 Q1.63 1.8385 1.56 2.0333 Q1.49 2.228 1.49 2.4178 Q1.49 2.6575 1.58 2.8872 Q1.67 3.1168 1.81 3.3066 Q1.95 3.4963 2.13 3.6561 Q2.31 3.8159 2.5 3.9657 Z M2.5 7.5509 Q2.72 7.5509 2.94 7.496 Q3.16 7.4411 3.325 7.2963 Q3.49 7.1515 3.575 6.9417 Q3.66 6.732 3.66 6.5123 Q3.66 6.2427 3.555 5.998 Q3.45 5.7533 3.285 5.5486 Q3.12 5.3439 2.915 5.1741 Q2.71 5.0043 2.5 4.8545 Q2.29 5.0043 2.085 5.1741 Q1.88 5.3439 1.715 5.5486 Q1.55 5.7533 1.445 5.998 Q1.34 6.2427 1.34 6.5123 Q1.34 6.732 1.425 6.9417 Q1.51 7.1515 1.675 7.2963 Q1.84 7.4411 2.06 7.496 Q2.28 7.5509 2.5 7.5509 Z"/>
    </symbol>
    <symbol id="dtn-glyph-ui-9" viewBox="0 0 5 9">
      <path class="dtn-glyph-path dtn-glyph-path-ui" fill="currentColor" d="M1.39 8.25 L1.21 7.5709 Q1.54 7.481 1.85 7.3162 Q2.16 7.1515 2.415 6.9168 Q2.67 6.6821 2.87 6.3925 Q3.07 6.1029 3.205 5.7833 Q3.34 5.4637 3.42 5.1242 Q3.5 4.7846 3.54 4.4451 Q3.45 4.6348 3.315 4.7996 Q3.18 4.9644 3 5.0792 Q2.82 5.1941 2.61 5.244 Q2.4 5.2939 2.19 5.2939 Q1.93 5.2939 1.67 5.214 Q1.41 5.1342 1.215 4.9594 Q1.02 4.7846 0.89 4.5499 Q0.76 4.3152 0.685 4.0656 Q0.61 3.8159 0.585 3.5513 Q0.56 3.2866 0.56 3.027 Q0.56 2.7373 0.6 2.4577 Q0.64 2.1781 0.74 1.9134 Q0.84 1.6488 1.015 1.4191 Q1.19 1.1894 1.425 1.0346 Q1.66 0.8798 1.94 0.8149 Q2.22 0.75 2.5 0.75 Q2.78 0.75 3.06 0.8149 Q3.34 0.8798 3.575 1.0346 Q3.81 1.1894 3.985 1.4191 Q4.16 1.6488 4.26 1.9134 Q4.36 2.1781 4.4 2.4577 Q4.44 2.7373 4.44 3.027 Q4.44 3.4364 4.4 3.8459 Q4.36 4.2553 4.3 4.6598 Q4.24 5.0642 4.135 5.4637 Q4.03 5.8632 3.85 6.2327 Q3.67 6.6022 3.42 6.9368 Q3.17 7.2713 2.855 7.531 Q2.54 7.7906 2.165 7.9754 Q1.79 8.1601 1.39 8.25 Z M2.5 4.5949 Q2.73 4.5949 2.955 4.5 Q3.18 4.4051 3.325 4.2254 Q3.47 4.0456 3.55 3.8209 Q3.63 3.5962 3.65 3.3565 Q3.66 3.2766 3.66 3.1917 Q3.66 3.1069 3.66 3.027 Q3.66 2.8372 3.64 2.6525 Q3.62 2.4677 3.57 2.2929 Q3.52 2.1182 3.425 1.9584 Q3.33 1.7986 3.185 1.6788 Q3.04 1.5589 2.86 1.504 Q2.68 1.4491 2.5 1.4491 Q2.32 1.4491 2.14 1.504 Q1.96 1.5589 1.815 1.6788 Q1.67 1.7986 1.575 1.9584 Q1.48 2.1182 1.43 2.2929 Q1.38 2.4677 1.36 2.6525 Q1.34 2.8372 1.34 3.027 Q1.34 3.2067 1.36 3.3915 Q1.38 3.5762 1.43 3.751 Q1.48 3.9258 1.575 4.0856 Q1.67 4.2453 1.815 4.3652 Q1.96 4.485 2.14 4.5399 Q2.32 4.5949 2.5 4.5949 Z"/>
    </symbol>
    <symbol id="dtn-glyph-ui-times" viewBox="0 0 5 9">
      <path class="dtn-glyph-path dtn-glyph-path-ui" fill="currentColor" d="M0.74 7.0216 L0.22 6.5623 L2 4.7746 L0.22 2.987 L0.74 2.5276 L2.5 4.2753 L4.26 2.5276 L4.78 2.987 L3 4.7746 L4.78 6.5623 L4.26 7.0216 L2.5 5.274 L0.74 7.0216 Z"/>
    </symbol>
  </defs>
</svg>
